# xmcd CD database file
#
# Track frame offsets:
#	150
#	10801
#	23685
#	36455
#	53601
#	61646
#	68014
#	76475
#	97025
#	117651
#	130362
#	142041
#	150497
#	167572
#	177081
#	184027
#	193236
#	202736
#	209561
#	227486
#
# Disc length: 3243 seconds
#
# Revision: 0
# Processed by: cddbd v1.5.2PL0 Copyright (c) Steve Scherf et al.
# Submitted via: CDex 1.51
#
DISCID=0f0ca914
DTITLE=Semafor - Almanach
DYEAR=2006
DGENRE=Jazz
TTITLE0=Arie Triquetta
TTITLE1=Modlitba k sv.Nitouche
TTITLE2=Jen pro ten dnesni den
TTITLE3=Paganini
TTITLE4=Holky holky
TTITLE5=Ted jeste ne
TTITLE6=Prodam srdce
TTITLE7=Rub a lic ma nejen mince, Holky holky, Pani Rosamundo nashle
TTITLE8=Smes pisni Jaroslava Jezka a V+W
TTITLE9=Glory glory haleluja
TTITLE10=Holka modrooka
TTITLE11=Lokl si vojak koralky
TTITLE12=Amalie s doborou povesti
TTITLE13=Kdo je nejbohatsi
TTITLE14=Meni se casy
TTITLE15=Mame te radi
TTITLE16=Donedavna v tomto dome
TTITLE17=Pange lingua
TTITLE18=Vsechno se tenkrate proti mne spiklo
TTITLE19=Krasohled
EXTD=YEAR: 2006
EXTT0=
EXTT1=
EXTT2=
EXTT3=
EXTT4=
EXTT5=
EXTT6=
EXTT7=
EXTT8=
EXTT9=
EXTT10=
EXTT11=
EXTT12=
EXTT13=
EXTT14=
EXTT15=
EXTT16=
EXTT17=
EXTT18=
EXTT19=
PLAYORDER=
